<svg width="265" height="252" viewBox="0 0 265 252" fill="none" xmlns="http://www.w3.org/2000/svg">
<ellipse cx="132.5" cy="126" rx="132.5" ry="126" fill="#00A3FF"/>
<path d="M89.8789 208.445C84.7891 208.445 79.8789 206.422 76.2617 202.801C68.7617 195.301 68.7617 183.09 76.2617 175.582L108.305 143.539C109.371 142.473 111.105 142.473 112.172 143.539C113.238 144.605 113.238 146.34 112.172 147.406L80.1289 179.449C74.7578 184.824 74.7578 193.562 80.1289 198.934C82.8945 201.703 86.7187 203.164 90.6289 202.953C94.5312 202.738 98.1758 200.867 100.621 197.816L131.707 159.066L116.602 138.527C115.707 137.312 115.969 135.598 117.184 134.703C118.402 133.809 120.113 134.07 121.008 135.285L137.359 157.519C138.094 158.519 138.066 159.883 137.289 160.852L104.887 201.238C101.469 205.5 96.3828 208.117 90.9258 208.414C90.5742 208.434 90.2266 208.445 89.8789 208.445Z" fill="#F5F5F5"/>
<path d="M152.852 139.813C152.152 139.813 151.453 139.547 150.918 139.012L133.809 121.902C132.742 120.836 132.742 119.102 133.809 118.035L155.914 95.9258L150.219 74.6641C149.965 73.7188 150.234 72.7148 150.926 72.0234L176.578 46.3711C177.27 45.6797 178.277 45.4102 179.219 45.6641L197.531 50.5742C198.477 50.8281 199.211 51.5625 199.465 52.5078C199.719 53.4531 199.449 54.457 198.758 55.1484L179.191 74.7148L182.852 88.3906L196.535 92.0547L216.102 72.4883C216.793 71.7969 217.801 71.5273 218.742 71.7812C219.687 72.0352 220.422 72.7695 220.676 73.7148L225.586 92.0273C225.84 92.9727 225.57 93.9766 224.879 94.668L199.227 120.32C198.535 121.012 197.527 121.281 196.586 121.027L174.074 114.996L162.332 129.629C161.387 130.809 159.668 130.996 158.488 130.051C157.309 129.105 157.121 127.383 158.066 126.207L170.926 110.18C171.605 109.332 172.719 108.969 173.766 109.25L196.477 115.336L219.895 91.918L216.621 79.7031L199.289 97.0352C198.598 97.7266 197.594 97.9961 196.648 97.7422L179.918 93.2617C178.973 93.0078 178.238 92.2695 177.984 91.3281L173.508 74.6016C173.254 73.6562 173.523 72.6523 174.215 71.9609L191.547 54.6289L179.332 51.3555L155.914 74.7734L161.609 96.0352C161.863 96.9805 161.594 97.9844 160.902 98.6758L139.613 119.969L154.789 135.145C155.855 136.211 155.855 137.945 154.789 139.012C154.254 139.543 153.551 139.813 152.852 139.813Z" fill="#F5F5F5"/>
<path d="M178.438 208.441C171.785 208.441 165.516 205.211 161.664 199.797L104.957 122.699C104.062 121.484 104.324 119.77 105.539 118.875C106.754 117.98 108.469 118.242 109.363 119.457L166.086 196.57C166.094 196.582 166.105 196.594 166.113 196.609C168.984 200.652 173.477 202.973 178.441 202.973C182.465 202.973 186.254 201.402 189.105 198.551C191.957 195.699 193.527 191.906 193.527 187.871C193.527 183.836 191.957 180.047 189.105 177.191L113.609 101.703L101.977 113.336C100.91 114.402 99.1758 114.402 98.1094 113.336C97.043 112.27 97.043 110.535 98.1094 109.469L111.68 95.8984C112.746 94.832 114.48 94.832 115.547 95.8984L192.973 173.324C196.859 177.211 198.996 182.375 198.996 187.871C198.996 193.363 196.855 198.531 192.973 202.418C189.082 206.305 183.922 208.441 178.438 208.441Z" fill="#F5F5F5"/>
<path d="M95.8356 118.344C95.1364 118.344 94.4372 118.078 93.902 117.543L84.6715 108.316C84.152 107.797 83.8629 107.09 83.8708 106.352C83.8786 105.617 84.1833 104.914 84.7145 104.406L105.797 84.211C106.871 83.1797 108.57 83.1992 109.621 84.25L118.406 93.0352C119.472 94.1016 119.472 95.836 118.406 96.9024L97.7692 117.539C97.2379 118.074 96.5348 118.344 95.8356 118.344ZM90.5153 106.426L95.8356 111.742L112.609 94.9688L107.652 90.0117L90.5153 106.426Z" fill="#F5F5F5"/>
<path d="M103.09 74.8516C102.391 74.8516 101.691 74.5859 101.156 74.0508L85.0273 57.9219C83.9609 56.8555 83.9609 55.1211 85.0273 54.0547L89.3555 49.7266L87.3398 40.4297C87.1445 39.5195 87.4219 38.5742 88.0781 37.918L95.6406 30.3555C96.707 29.2891 98.4414 29.2891 99.5078 30.3555L128.719 59.5664C129.785 60.6328 129.785 62.3672 128.719 63.4336L121.156 70.9961C120.5 71.6523 119.551 71.9297 118.645 71.7344L109.348 69.7187L105.02 74.0469C104.488 74.582 103.789 74.8516 103.09 74.8516ZM90.8281 55.9883L103.09 68.25L106.539 64.8008C107.195 64.1445 108.141 63.8633 109.051 64.0625L118.348 66.0781L122.922 61.5039L97.5742 36.1562L93 40.7305L95.0156 50.0273C95.2109 50.9375 94.9336 51.8828 94.2773 52.5391L90.8281 55.9883Z" fill="#F5F5F5"/>
<path d="M43.4686 114.82C43.367 114.82 43.2694 114.816 43.1678 114.805C42.3436 114.715 41.6053 114.254 41.16 113.551C37.4178 107.648 35.7615 100.551 36.492 93.5625C37.2342 86.4688 40.4256 79.7813 45.4803 74.7305L60.6053 59.9766C61.6873 58.9219 63.4178 58.9453 64.4725 60.0234C65.5272 61.1055 65.5037 62.836 64.4256 63.8906L49.324 78.6211C41.7108 86.2383 39.742 97.9414 44.1248 107.566L61.2225 90.4688C62.2889 89.4024 64.0233 89.4024 65.0897 90.4688L81.8162 107.195L108.621 81.5156L78.1326 51.0274L76.4529 52.6367C75.3631 53.6797 73.6326 53.6445 72.5858 52.5547C71.5428 51.4649 71.5779 49.7344 72.6678 48.6875L76.2811 45.2266C77.3553 44.1992 79.0545 44.2149 80.1053 45.2656L114.465 79.625C114.984 80.1445 115.273 80.8516 115.265 81.586C115.258 82.3203 114.953 83.0234 114.422 83.5313L83.6678 112.996C82.5936 114.023 80.8944 114.008 79.8436 112.957L63.1522 96.2656L45.4022 114.016C44.8865 114.535 44.1912 114.82 43.4686 114.82Z" fill="#F5F5F5"/>
<path d="M68.3984 59.0742C68.2227 59.0742 68.043 59.0547 67.8672 59.0195C67.6914 58.9844 67.5195 58.9336 67.3555 58.8633C67.1875 58.7969 67.0313 58.7109 66.8828 58.6133C66.7344 58.5117 66.5938 58.3984 66.4648 58.2734C66.3398 58.1484 66.2266 58.0078 66.125 57.8594C66.0273 57.7109 65.9453 57.5508 65.875 57.3867C65.8086 57.2187 65.7539 57.0469 65.7187 56.875C65.6836 56.6992 65.6641 56.5195 65.6641 56.3398C65.6641 55.6211 65.957 54.9141 66.4648 54.4062C66.5938 54.2812 66.7344 54.1641 66.8828 54.0664C67.0313 53.9687 67.1875 53.8828 67.3555 53.8164C67.5195 53.7461 67.6914 53.6953 67.8672 53.6602C68.7539 53.4805 69.6992 53.7734 70.332 54.4062C70.8438 54.9141 71.1328 55.6211 71.1328 56.3398C71.1328 57.0586 70.8438 57.7656 70.332 58.2734C69.8242 58.7812 69.1211 59.0742 68.3984 59.0742Z" fill="#F5F5F5"/>
</svg>
