<svg width="265" height="252" viewBox="0 0 265 252" fill="none" xmlns="http://www.w3.org/2000/svg">
<ellipse cx="132.5" cy="126" rx="132.5" ry="126" fill="#00A3FF"/>
<path d="M71.125 97.5H82.375V86.25H71.125V97.5ZM116.125 86.25H127.375V75H116.125V86.25ZM138.625 86.25H149.875V75H138.625V86.25ZM161.125 86.25H172.375V75H161.125V86.25ZM116.125 63.75H127.375V52.5H116.125V63.75ZM138.625 63.75H149.875V52.5H138.625V63.75ZM161.125 63.75H172.375V52.5H161.125V63.75ZM116.125 131.25H127.375V120H116.125V131.25ZM138.625 131.25H149.875V120H138.625V131.25ZM161.125 131.25H172.375V120H161.125V131.25ZM116.125 153.75H127.375V142.5H116.125V153.75ZM161.125 153.75H172.375V142.5H161.125V153.75ZM116.125 176.25H127.375V165H116.125V176.25ZM161.125 176.25H172.375V165H161.125V176.25ZM194.875 165H206.125V153.75H194.875V165ZM194.875 131.25V142.5H206.125V131.25H194.875ZM194.875 187.5H206.125V176.25H194.875V187.5ZM116.125 108.75H127.375V97.5H116.125V108.75ZM138.625 108.75H149.875V97.5H138.625V108.75ZM161.125 108.75H172.375V97.5H161.125V108.75ZM71.125 120H82.375V108.75H71.125V120ZM71.125 142.5H82.375V131.25H71.125V142.5ZM71.125 165H82.375V153.75H71.125V165ZM71.125 187.5H82.375V176.25H71.125V187.5ZM138.625 153.75H149.875V142.5H138.625V153.75Z" fill="#F5F5F5"/>
<path fill-rule="evenodd" clip-rule="evenodd" d="M217.375 198.75C217.375 204.968 212.343 210 206.125 210H59.875C53.6566 210 48.625 204.968 48.625 198.75V75C48.625 68.7816 53.6566 63.75 59.875 63.75H93.625V41.25C93.625 35.0316 98.6566 30 104.875 30H183.625C189.843 30 194.875 35.0316 194.875 41.25V108.75H206.125C212.343 108.75 217.375 113.782 217.375 120V198.75ZM93.625 75H59.875V198.75H93.625V75ZM183.625 41.25H104.875V198.75H138.625V165H149.875V198.75H183.625V41.25ZM206.125 120H194.875V198.75H206.125V120Z" fill="#F5F5F5"/>
</svg>
