<svg width="256" height="256" viewBox="0 0 256 256" fill="none" xmlns="http://www.w3.org/2000/svg">
<path fill-rule="evenodd" clip-rule="evenodd" d="M99.2421 153.769C89.5061 149.91 77.0196 150.563 67.0471 153.475L56.5266 156.596L51.0536 158.278C45.0971 159.899 37.4071 162.027 31.4646 158.881C25.9776 155.913 24.0236 149.862 24.5006 143.698C25.4731 135.198 28.8076 127.679 32.7191 120.403C37.5176 112.31 43.2251 104.19 51.0831 97.8691C53.1526 96.4501 55.1931 94.7566 57.8946 95.0696C58.5026 95.1926 58.8976 95.5896 59.2286 96.1066C59.3491 96.4711 59.5291 96.9876 59.1026 97.2601C56.6106 97.5866 54.4476 100.068 53.8916 102.404C53.7066 103.528 53.6401 104.772 54.5191 105.626C54.9111 106.053 55.4281 106.268 56.0326 106.27C59.4061 105.796 61.4266 102.067 62.0731 99.1231C62.5681 96.6336 62.2736 93.8691 60.0931 92.2521C57.6386 90.3611 53.9606 91.1366 51.1951 91.8266C37.7236 96.2741 26.3181 109.599 19.7171 121.816C18.1591 124.787 16.7511 127.82 15.6151 130.945C12.1236 139.801 11.2586 152.767 18.6136 160.111C23.2711 165.228 30.4381 165.436 37.1231 164.824C50.3106 163.166 61.8446 156.525 75.8701 157.878C80.2116 158.743 84.4536 160.975 86.9626 164.996L87.3581 165.085C95.6316 161.138 106.499 163.391 114.84 165.668C115.024 165.7 115.024 165.516 115.026 165.366C111.187 159.583 105.125 156.219 99.2421 153.769ZM113.182 109.536C112.212 109.289 111.874 110.321 111.388 110.805C110.78 111.046 110.385 110.406 109.9 110.223C106.897 108.634 103.37 109.957 100.877 111.68C92.8351 117.544 89.6466 126.463 83.6386 133.671C81.0181 136.516 78.0006 139.267 74.5651 140.622C73.3791 140.921 72.2236 140.521 71.5296 139.579C70.5936 138.089 71.0586 135.995 71.4281 134.387C72.7766 129.926 74.8266 125.712 77.3606 121.742C79.3781 118.773 81.6381 115.226 85.1061 113.781C85.6806 113.783 86.2271 113.846 86.5926 114.363C87.0716 115.671 85.3136 115.269 84.7331 115.845C82.6951 117.174 81.2281 119.509 81.7371 122.031C81.9441 122.578 82.3996 123.126 82.9471 123.31C84.3111 123.74 85.4981 123.046 86.4436 122.138C88.9131 119.383 90.6871 115.411 88.8766 111.82C88.1826 110.573 86.8781 109.808 85.5456 109.591C78.4101 108.837 73.7106 115.259 69.3191 120.164C67.2776 122.102 64.9951 123.43 62.1731 123.51C61.9606 123.479 61.7776 123.237 61.7776 123.022C62.8541 119.292 64.0891 113.86 60.9081 110.691C59.3966 109.378 57.2701 109.189 55.2921 109.638C47.9056 111.982 42.5631 119.8 39.0786 126.195C37.4261 129.621 36.0491 133.172 35.3381 136.995C34.9601 140.362 35.2221 144.01 38.1926 146.056C41.0401 147.673 44.6586 146.473 47.0931 144.72C52.9711 140.215 56.5176 133.787 59.7876 127.726L60.2761 127.179C61.6736 126.971 63.0711 126.733 64.5291 126.617C64.8326 126.679 64.8626 127.014 64.7711 127.256C62.6571 132.381 59.4761 139.297 63.4966 144.563C65.1616 146.329 67.3151 147.066 69.8036 146.772C75.1831 145.757 79.5691 142.16 83.6246 138.165C83.7456 138.073 84.0491 137.983 84.1376 138.225C84.1931 140.291 83.7281 142.69 84.6961 144.546C85.2096 145.64 86.2991 146.525 87.4526 146.772C91.1866 147.241 93.9281 144.851 96.5776 142.459C96.7611 142.4 96.9731 142.432 97.0946 142.585C97.4251 143.889 97.4791 145.349 98.6896 146.266C99.4796 147.026 100.754 146.939 101.786 146.821C108.019 145.262 112.443 139.205 115.833 133.99C116.933 131.99 118.184 130.052 118.983 127.929C118.467 127.442 117.587 127.742 116.886 127.649C116.219 127.555 115.824 128.159 115.489 128.645C114.693 130.313 113.715 131.889 112.616 133.404C111.364 135.008 109.961 136.917 108.164 137.944C107.832 138.063 107.375 138.095 107.166 137.729C107.106 137.424 107.136 137.057 107.259 136.787L119.736 111.44L120.381 109.894L120.231 109.681C117.952 109.462 115.398 109.574 113.182 109.536ZM56.2641 127.743C54.3681 131.443 52.0466 135.292 48.6971 138.104C47.9966 138.556 47.2356 139.04 46.3236 138.794C45.4746 138.582 45.0226 137.697 44.8421 136.936C44.9191 132.836 46.6606 129.35 48.3711 125.895L50.0231 123.137C50.2356 122.923 50.3566 122.621 50.6636 122.562L50.9966 122.624C52.5406 124.361 54.4791 125.735 56.4821 126.53C56.6921 126.926 56.4176 127.381 56.2641 127.743ZM59.6651 119.129C59.3566 120.405 58.9871 121.679 58.3791 122.832C58.0406 123.317 57.4036 123.01 57.0106 122.887C55.4011 122.274 53.7061 120.689 53.5926 118.866C53.5386 116.8 54.8496 114.953 56.6756 114.048C57.2526 113.776 58.0731 113.81 58.6186 114.114C60.2266 115.215 59.9741 117.461 59.6651 119.129ZM107.865 118.75C105.112 124.816 102.055 130.787 98.0561 136.332C97.1721 137.301 96.2586 138.542 94.8896 138.508C94.5546 138.416 94.1936 138.171 94.0431 137.836C93.5616 136.166 94.2651 134.527 94.7271 133.01L95.7991 130.31C98.4916 124.672 101.398 118.729 106.788 114.586C107.273 114.345 107.852 113.922 108.459 114.197C108.701 114.35 109.007 114.563 109.034 114.867C109.059 116.296 108.325 117.477 107.865 118.75ZM127.973 118.304C128.672 118.215 129.312 117.639 129.619 117.034C130.873 114.729 131.974 112.365 132.982 109.97L132.74 109.725L126.76 109.643C125.939 109.731 124.996 109.699 124.388 110.365C122.891 112.605 121.882 115.063 120.688 117.427C120.626 117.702 120.411 118.035 120.653 118.278C122.963 118.498 125.543 118.355 127.973 118.304ZM158.932 132.655C158.544 130.678 157.157 128.457 155.06 127.904C150.267 126.763 146.308 129.817 143.23 133.39C139.353 138.813 136.841 144.849 137.091 151.898C137.151 152.016 137.18 152.262 137.393 152.201C139.131 150.171 141.295 148.144 143.488 146.633C144.643 145.755 145.953 145.185 147.049 144.277C147.488 140.451 148.53 136.901 151 133.933C152.069 132.841 153.381 131.543 154.956 132.246C156.712 133.557 156.186 136.168 155.969 138.082C154.64 144.484 151.4 150.154 146.584 155.058C143.418 157.78 139.367 160.682 135.155 158.418C130.368 155.123 131.91 147.899 133.051 143.194C136.737 130.664 143.215 119.267 151.755 108.758C156.542 103.339 161.727 97.6166 168.203 95.4521C168.69 95.3626 169.359 95.1226 169.754 95.5186C169.872 95.7011 169.69 95.8511 169.601 96.0031C165.61 99.0271 161.92 102.963 159.534 107.146C157.46 110.996 154.951 116.271 157.791 120.594C158.818 121.965 160.455 122.487 162.157 122.127C166.049 121.017 168.702 117.564 170.994 114.262C173.863 109.534 175.977 104.348 175.846 98.3946C175.938 97.7866 175.639 96.9966 176.278 96.6641C182.082 95.7121 187.206 97.8261 191.662 100.848L201.207 107.411C201.42 107.534 201.753 107.626 201.965 107.414C203.826 105.021 205.566 102.657 207.638 100.357C207.883 100.084 208.098 99.5981 207.643 99.3541C204.038 97.0941 200.462 94.7431 196.701 92.9081C190.213 89.6656 181.218 90.5771 174.743 93.1666C174.224 93.3471 173.8 93.0421 173.44 92.7371C171.56 91.0596 168.796 90.8381 166.337 91.1936C157.307 92.8931 149.849 98.4561 142.959 105.327C135.859 112.652 130.85 120.957 126.689 129.567L124.422 134.936C121.97 141.972 119.448 151.319 123.095 158.591C124.664 161.999 128.116 164.562 131.82 164.785C141.477 165.699 149.096 158.042 153.919 150.466C156.918 145.072 159.701 139.278 158.932 132.655ZM172.506 98.3216C173.019 99.1126 172.713 100.267 172.711 101.178C172.021 107.341 169.36 112.707 164.969 117.339C163.751 118.276 162.439 119.486 160.805 119.026C159.953 118.718 159.625 117.836 159.535 117.015C159.669 112.947 161.595 109.613 163.699 106.37C165.715 103.461 168.49 100.585 171.444 98.6211C171.748 98.4106 172.14 98.2601 172.506 98.3216ZM227.441 127.576C226.709 127.545 226.678 128.364 226.161 128.727C225.43 129.09 224.976 128.298 224.368 128.082C220.913 126.492 217.384 128.301 214.702 130.416C206.54 137.347 203.593 146.81 196.913 154.533C195.997 155.379 194.965 156.622 193.658 156.041C193.174 155.735 192.964 155.188 192.935 154.609C193.068 151.177 194.021 147.993 194.974 144.868C195.493 143.716 195.527 142.32 196.565 141.412L201.499 137.357C208.32 131.156 213.937 124.342 218.881 117.222C219.278 116.463 220.01 115.798 220.071 114.947L219.859 114.887C218.767 114.974 217.673 114.969 216.727 115.423C212.304 121.663 207.515 127.811 201.603 133.168C200.812 133.711 200.2 134.773 199.168 134.799C199.017 134.677 198.955 134.555 198.99 134.373C200.183 131.217 201.712 128.217 203.181 125.184C207.644 116.454 212.504 107.813 219.212 100.033C221.013 98.0021 222.902 95.9131 225.246 94.7686C225.702 94.6176 226.369 94.4376 226.67 94.9846C226.912 95.5336 226.819 96.0186 226.757 96.5951C226.542 97.6581 225.959 98.6271 225.925 99.7201C225.987 99.7826 226.048 99.7516 226.107 99.7831C227.355 99.3911 229.239 99.2171 229.427 97.5161C229.891 95.6041 230.385 93.1161 228.626 91.6821C227.051 90.4616 224.679 91.1521 223.038 91.7231C216.102 94.7066 210.129 101.095 205.459 107.275C197.983 117.969 191.685 129.184 187.452 141.259L186.995 141.832C185.931 142.377 184.533 142.553 183.318 142.368C183.076 142.276 182.833 142.032 182.925 141.699C183.852 137.935 185.963 133.174 183.457 129.459C182.548 128.212 181.243 127.601 179.757 127.564C173.862 127.94 169.197 132.995 165.69 137.63C161.659 143.568 158.358 149.785 157.758 157.132C157.747 160.049 158.494 163.148 161.344 164.373C164.774 165.388 167.849 163.545 170.343 161.337C175.1 156.828 178.123 151.612 180.876 146.218L181.486 145.519L185.222 145.473C185.465 145.502 185.769 145.778 185.766 146.05C184.657 150.817 182.998 156.248 184.558 161.205C185.072 162.723 186.554 164.369 188.253 164.497C192.719 164.876 196.072 160.908 198.727 157.73L199.03 157.608C199.178 157.7 199.119 157.88 199.24 157.975C199.416 160.313 199.68 163.047 202.043 164.149C205.837 165.196 208.761 162.472 211.472 160.051C211.625 159.959 211.929 159.931 212.05 160.113C212.652 161.392 212.524 163.061 213.858 163.978C215.527 164.894 217.624 164.203 219.147 163.45C225.687 160.009 229.87 153.221 232.868 147.004C232.962 146.55 233.511 146.036 233.086 145.638C232.387 145.546 231.508 145.421 230.868 145.722C229.677 147.51 228.67 149.359 227.418 151.116C226.166 152.904 224.763 154.659 222.847 155.717C222.451 155.806 221.965 155.775 221.814 155.317C221.758 154.254 222.367 153.255 222.827 152.316L233.044 131.698L234.696 128.363C234.755 128.151 234.909 127.847 234.696 127.665C232.389 127.473 229.838 127.556 227.441 127.576ZM177.841 145.962C175.943 149.6 173.864 153.602 170.362 156.203C169.754 156.503 168.994 156.805 168.297 156.56C167.236 156.222 166.722 155.157 166.662 154.125C166.673 151.208 167.809 148.783 168.848 146.326C169.764 144.384 170.624 142.444 171.935 140.688C172.148 140.566 172.481 140.599 172.664 140.781C174.116 142.394 175.872 143.83 177.692 144.745C178.176 145.021 178.023 145.6 177.841 145.962ZM179.949 141.14C179.707 141.564 179.1 141.412 178.766 141.289C177.069 140.675 175.583 138.936 175.469 137.085C175.538 135.112 176.363 133.262 178.069 132.145C178.645 131.873 179.346 131.661 180.013 131.846C180.68 132.062 181.226 132.7 181.436 133.34C181.974 136.077 180.991 138.773 179.949 141.14ZM223.652 133.79C221.138 139.98 218.446 146.074 214.781 151.769C213.682 153.344 212.524 155.256 210.726 156.19C210.271 156.34 209.694 156.309 209.331 155.944C208.664 155.271 208.882 154.179 208.945 153.3L209.805 150.325C212.228 144.472 214.796 138.65 219.641 133.839C220.738 133.052 221.899 131.415 223.385 132.12C223.899 132.485 223.745 133.241 223.652 133.79ZM219.747 103.406L219.261 103.829L216.026 108.009L213.432 111.918C213.308 112.159 212.972 112.645 213.456 112.768L216.129 112.808C227.46 112.666 237.941 103.74 242.258 93.5821C242.561 92.7931 242.959 91.9741 242.994 91.0931C236.41 97.6621 229.105 103.225 219.747 103.406Z" fill="#E0051C"/>
</svg>
