<svg width="250" height="101" viewBox="0 0 250 101" fill="none" xmlns="http://www.w3.org/2000/svg">
<path fill-rule="evenodd" clip-rule="evenodd" d="M93.7393 84.9376C83.1561 79.7292 69.5831 80.6111 58.7428 84.5408L47.3068 88.7526L41.3575 91.0224C34.8827 93.2093 26.5235 96.081 20.0639 91.8355C14.0994 87.8302 11.9754 79.6651 12.4939 71.3462C13.551 59.8762 17.1757 49.7294 21.4276 39.9098C26.6436 28.989 32.8478 18.0305 41.3896 9.50104C43.6392 7.58611 45.8572 5.30075 48.7938 5.72314C49.4547 5.88913 49.8841 6.42487 50.2439 7.12255C50.3749 7.61444 50.5705 8.31146 50.1069 8.6792C47.3981 9.11981 45.0469 12.4686 44.4425 15.621C44.2414 17.1378 44.1691 18.8166 45.1246 19.969C45.5507 20.5453 46.1127 20.8354 46.7698 20.8374C50.4368 20.1978 52.6332 15.1662 53.3359 11.1933C53.874 7.83374 53.5539 4.10307 51.1836 1.92094C48.5155 -0.630949 44.5175 0.415583 41.5113 1.34673C26.8675 7.34859 14.4696 25.3306 7.29414 41.8173C5.60056 45.826 4.07004 49.919 2.83519 54.1368C-0.96014 66.0872 -1.90041 83.5847 6.09462 93.4954C11.1574 100.401 18.9481 100.681 26.2148 99.8555C40.5499 97.6181 53.0875 88.6561 68.3335 90.4827C73.0528 91.6493 77.664 94.662 80.3913 100.088L80.8212 100.208C89.8147 94.882 101.627 97.9224 110.695 100.995C110.894 101.038 110.894 100.79 110.897 100.588C106.724 92.7829 100.134 88.2432 93.7393 84.9376ZM108.892 25.2449C107.838 24.9122 107.47 26.3042 106.942 26.9581C106.281 27.2833 105.851 26.4196 105.324 26.172C102.06 24.0276 98.226 25.8137 95.5161 28.1382C86.7748 36.0523 83.3088 48.0884 76.778 57.8148C73.9295 61.6548 70.6494 65.3673 66.915 67.1958C65.6258 67.5993 64.3697 67.0595 63.6153 65.7876C62.5979 63.7776 63.1033 60.9511 63.505 58.7811C64.9708 52.7617 67.1992 47.0749 69.9537 41.7168C72.1468 37.7101 74.6035 32.9241 78.3732 30.9741C78.9977 30.9762 79.5918 31.0612 79.9891 31.7589C80.5098 33.5247 78.5988 32.9822 77.9678 33.7595C75.7524 35.5523 74.1578 38.704 74.7111 42.1068C74.9361 42.8456 75.4312 43.5845 76.0264 43.8334C77.5091 44.4137 78.7993 43.4772 79.8271 42.2512C82.5115 38.5333 84.4399 33.1738 82.4719 28.3278C81.7175 26.645 80.2994 25.6126 78.851 25.3198C71.0946 24.3016 65.9861 32.9687 61.2125 39.5879C58.9933 42.2026 56.5122 43.9947 53.4446 44.1033C53.2136 44.0615 53.0147 43.7343 53.0147 43.4448C54.1849 38.4105 55.5274 31.0801 52.0695 26.8042C50.4265 25.0317 48.115 24.7766 45.9648 25.3825C37.9356 28.5457 32.1282 39.0961 28.3405 47.7267C26.5442 52.3494 25.0473 57.1415 24.2745 62.3006C23.8636 66.845 24.1484 71.7672 27.3774 74.5283C30.4727 76.7111 34.406 75.0917 37.0524 72.7254C43.4419 66.6466 47.297 57.9721 50.8515 49.7921L51.3826 49.0546C52.9017 48.7739 54.4208 48.4527 56.0056 48.2962C56.3356 48.3792 56.3682 48.832 56.2687 49.1579C53.9707 56.0747 50.5129 65.4071 54.8833 72.5142C56.6932 74.8974 59.0341 75.892 61.7391 75.4945C67.5867 74.1248 72.3544 69.2707 76.7628 63.8795C76.8943 63.7553 77.2243 63.6339 77.3205 63.9604C77.3808 66.7492 76.8753 69.9859 77.9276 72.4906C78.4857 73.9669 79.6701 75.1619 80.9239 75.4945C84.9829 76.1281 87.9629 72.9022 90.843 69.6742C91.0424 69.5952 91.2729 69.6377 91.405 69.8449C91.7642 71.6046 91.8229 73.5742 93.1388 74.8117C93.9975 75.838 95.3824 75.7206 96.5047 75.5606C103.28 73.4568 108.089 65.2829 111.774 58.246C112.969 55.547 114.33 52.931 115.198 50.0661C114.637 49.4089 113.68 49.8137 112.919 49.6882C112.194 49.562 111.764 50.3771 111.4 51.0323C110.535 53.2833 109.471 55.4101 108.277 57.4545C106.916 59.6198 105.391 62.1953 103.437 63.5819C103.076 63.7418 102.58 63.785 102.352 63.2918C102.287 62.8802 102.32 62.3849 102.454 62.0199L116.016 27.8143L116.717 25.728L116.554 25.4405C114.077 25.1457 111.301 25.2968 108.892 25.2449ZM47.0214 49.8157C44.9604 54.8088 42.4369 60.0024 38.796 63.7978C38.0345 64.4078 37.2073 65.0609 36.2159 64.7283C35.293 64.4422 34.8017 63.2479 34.6055 62.2209C34.6892 56.6887 36.5822 51.9837 38.4416 47.3219L40.2373 43.5993C40.4683 43.3112 40.5999 42.9036 40.9336 42.824L41.2956 42.907C42.9739 45.2511 45.0811 47.1053 47.2584 48.1788C47.4867 48.7132 47.1883 49.3265 47.0214 49.8157ZM50.7184 38.1912C50.383 39.9132 49.9814 41.6324 49.3205 43.1877C48.9525 43.8429 48.2601 43.4286 47.8329 43.2619C46.0833 42.4354 44.2408 40.2957 44.1175 37.8363C44.0588 35.0476 45.4838 32.5557 47.4687 31.3338C48.0959 30.9667 48.9878 31.0126 49.5808 31.4235C51.3287 32.9093 51.0543 35.9396 50.7184 38.1912ZM103.113 37.6798C100.12 45.8658 96.7966 53.9236 92.4501 61.4058C91.4892 62.7135 90.4962 64.3889 89.0081 64.3423C88.6439 64.2182 88.2515 63.8875 88.0879 63.4355C87.5645 61.1825 88.3292 58.97 88.8315 56.9235L89.9967 53.2799C92.9235 45.6708 96.0824 37.6507 101.941 32.0598C102.469 31.7353 103.098 31.1637 103.758 31.5349C104.021 31.742 104.354 32.0294 104.383 32.4397C104.411 34.3674 103.613 35.9612 103.113 37.6798ZM124.97 37.0779C125.73 36.9571 126.425 36.1805 126.759 35.3634C128.123 32.2528 129.32 29.0626 130.415 25.8305L130.152 25.4999L123.651 25.3899C122.759 25.5087 121.734 25.4655 121.073 26.3636C119.446 29.3871 118.349 32.7035 117.052 35.8944C116.984 36.2648 116.75 36.7142 117.014 37.0428C119.524 37.3397 122.328 37.1467 124.97 37.0779ZM158.624 56.4438C158.202 53.7765 156.694 50.7793 154.414 50.0323C149.204 48.4932 144.9 52.6139 141.555 57.4363C137.34 64.7546 134.61 72.9001 134.882 82.4127C134.947 82.5719 134.979 82.9032 135.21 82.8216C137.099 80.0821 139.451 77.3467 141.835 75.307C143.091 74.1228 144.515 73.3529 145.706 72.1276C146.184 66.9644 147.316 62.1744 150.001 58.1691C151.163 56.6948 152.589 54.9431 154.302 55.8925C156.21 57.6617 155.639 61.1845 155.402 63.7681C153.958 72.4076 150.436 80.0585 145.2 86.6764C141.759 90.3504 137.356 94.2659 132.777 91.2107C127.574 86.7641 129.25 77.0161 130.49 70.666C134.497 53.7569 141.538 38.3768 150.821 24.1956C156.025 16.8828 161.662 9.16029 168.701 6.23932C169.23 6.11854 169.958 5.79466 170.387 6.32906C170.516 6.57534 170.317 6.77776 170.22 6.98288C165.882 11.0637 161.872 16.3753 159.278 22.0196C157.023 27.2158 154.296 34.3337 157.383 40.1682C158.5 42.0177 160.279 42.7228 162.129 42.237C166.359 40.7391 169.244 36.0786 171.735 31.6226C174.854 25.2422 177.152 18.2437 177.009 10.2102C177.109 9.3897 176.784 8.3236 177.479 7.8749C183.788 6.59018 189.358 9.443 194.202 13.5212L204.577 22.3779C204.808 22.5432 205.171 22.6673 205.401 22.3812C207.424 19.1519 209.316 15.9624 211.568 12.8579C211.834 12.4902 212.067 11.8343 211.573 11.505C207.654 8.45517 203.767 5.28252 199.679 2.8062C192.626 -1.56952 182.849 -0.339462 175.81 3.15505C175.246 3.39863 174.785 2.98704 174.393 2.57544C172.35 0.311672 169.346 0.0127559 166.672 0.4925C156.857 2.78596 148.75 10.2932 141.261 19.5655C133.542 29.4499 128.097 40.6574 123.575 52.2772L121.11 59.5226C118.445 69.017 115.703 81.6313 119.668 91.4442C121.373 96.0439 125.126 99.5027 129.152 99.8036C139.649 101.037 147.931 90.704 153.174 80.4795C156.434 73.2011 159.459 65.3814 158.624 56.4438ZM173.379 10.1117C173.936 11.1791 173.604 12.7364 173.601 13.9658C172.852 22.2827 169.958 29.5248 165.185 35.7756C163.861 37.0401 162.436 38.673 160.659 38.0522C159.733 37.6366 159.376 36.4463 159.279 35.3384C159.425 29.8487 161.518 25.3488 163.805 20.9731C165.996 17.0474 169.013 13.1663 172.224 10.5159C172.554 10.2318 172.98 10.0287 173.379 10.1117ZM233.094 49.5904C232.298 49.5479 232.264 50.6538 231.703 51.1436C230.908 51.6328 230.414 50.564 229.754 50.2732C225.998 48.1268 222.161 50.5687 219.246 53.4222C210.374 62.7756 207.171 75.5458 199.91 85.9679C198.914 87.1096 197.792 88.787 196.371 88.0036C195.845 87.59 195.616 86.8518 195.585 86.0712C195.729 81.439 196.765 77.1423 197.802 72.9258C198.365 71.3705 198.403 69.4866 199.531 68.2619L204.895 62.7897C212.309 54.4215 218.414 45.2261 223.789 35.6171C224.221 34.5935 225.016 33.6954 225.083 32.5476L224.852 32.4667C223.665 32.5841 222.476 32.5773 221.448 33.19C216.64 41.6108 211.434 49.9075 205.007 57.1367C204.148 57.8688 203.483 59.3026 202.361 59.3371C202.196 59.1724 202.129 59.0085 202.167 58.7629C203.464 54.5039 205.126 50.4554 206.723 46.3624C211.574 34.5807 216.857 22.9204 224.149 12.4207C226.106 9.68052 228.16 6.86143 230.708 5.31694C231.204 5.11316 231.928 4.87025 232.256 5.60842C232.519 6.34929 232.417 7.0038 232.35 7.78178C232.117 9.21629 231.483 10.5239 231.446 11.9989C231.513 12.0833 231.58 12.0414 231.644 12.084C233 11.555 235.048 11.3201 235.252 9.02466C235.757 6.44443 236.294 3.0869 234.382 1.15173C232.67 -0.495324 230.092 0.4365 228.307 1.20706C220.768 5.23327 214.275 13.8538 209.199 22.1937C201.072 36.6258 194.227 51.7604 189.625 68.0555L189.129 68.828C187.972 69.5642 186.452 69.801 185.132 69.5514C184.868 69.4272 184.604 69.0986 184.704 68.6486C185.712 63.5691 188.007 57.1441 185.282 52.1308C184.294 50.4486 182.876 49.6241 181.261 49.5742C174.853 50.0809 169.781 56.9033 165.969 63.1575C161.588 71.1708 157.999 79.5605 157.347 89.4753C157.335 93.4117 158.147 97.5938 161.245 99.2469C164.973 100.617 168.316 98.1296 171.027 95.1506C176.198 89.0657 179.484 82.0267 182.477 74.7469L183.14 73.8043L187.201 73.7422C187.465 73.7814 187.795 74.1538 187.793 74.5209C186.587 80.9539 184.783 88.283 186.479 94.9717C187.038 97.0203 188.649 99.2415 190.496 99.4143C195.35 99.9264 198.995 94.5709 201.881 90.2823L202.211 90.1183C202.372 90.2424 202.308 90.4854 202.439 90.6129C202.63 93.7687 202.917 97.4582 205.485 98.9453C209.61 100.358 212.789 96.6815 215.736 93.4151C215.901 93.2909 216.232 93.2532 216.363 93.4981C217.018 95.2241 216.879 97.4771 218.329 98.7145C220.143 99.95 222.422 99.0175 224.078 98.0013C231.188 93.3584 235.734 84.1974 238.993 75.8076C239.096 75.1949 239.692 74.5013 239.23 73.9642C238.471 73.84 237.514 73.6714 236.819 74.0776C235.525 76.4904 234.43 78.9863 233.069 81.3574C231.708 83.7703 230.183 86.1386 228.1 87.5657C227.67 87.6858 227.141 87.6447 226.977 87.0259C226.916 85.5921 227.579 84.244 228.078 82.9761L239.184 55.1523L240.98 50.6524C241.045 50.3657 241.211 49.9561 240.98 49.7098C238.473 49.4507 235.7 49.5627 233.094 49.5904ZM179.177 74.4021C177.115 79.3116 174.855 84.7116 171.048 88.2216C170.387 88.6271 169.561 89.034 168.803 88.7033C167.65 88.2472 167.091 86.8107 167.026 85.418C167.038 81.4815 168.272 78.2084 169.402 74.8927C170.398 72.2726 171.332 69.6546 172.758 67.2842C172.989 67.1203 173.351 67.1648 173.55 67.4104C175.128 69.5871 177.037 71.5243 179.015 72.7598C179.542 73.1322 179.376 73.9136 179.177 74.4021ZM181.469 67.8942C181.206 68.4664 180.546 68.2613 180.183 68.0953C178.339 67.2667 176.723 64.9199 176.599 62.422C176.675 59.7595 177.571 57.2629 179.426 55.7562C180.051 55.3891 180.814 55.103 181.539 55.3527C182.263 55.6435 182.858 56.5052 183.085 57.3688C183.67 61.0624 182.602 64.7006 181.469 67.8942ZM228.975 57.9754C226.242 66.3288 223.316 74.5533 219.332 82.2386C218.138 84.3634 216.879 86.9436 214.925 88.2047C214.43 88.4071 213.802 88.3646 213.408 87.8721C212.683 86.9645 212.92 85.4909 212.989 84.3047L213.923 80.2893C216.557 72.3907 219.349 64.534 224.615 58.0416C225.807 56.9795 227.069 54.7704 228.685 55.7218C229.243 56.215 229.076 57.2346 228.975 57.9754ZM224.731 16.9725L224.202 17.544L220.685 23.1842L217.866 28.4594C217.731 28.7853 217.366 29.4404 217.892 29.6071L220.798 29.6604C233.114 29.4688 244.507 17.4239 249.2 3.71577C249.53 2.65102 249.962 1.54579 250 0.356884C242.843 9.22169 234.902 16.7289 224.731 16.9725Z" fill="#E0051C"/>
</svg>
