<svg width="265" height="252" viewBox="0 0 265 252" fill="none" xmlns="http://www.w3.org/2000/svg">
<ellipse cx="132.5" cy="126" rx="132.5" ry="126" fill="#00A3FF"/>
<g filter="url(#filter0_i_32_5)">
<path d="M102.454 123.402C86.9282 123.402 74.2974 136.033 74.2974 151.558C74.2974 167.084 86.9282 179.714 102.454 179.714C117.979 179.714 130.61 167.084 130.61 151.558C130.61 145.916 128.946 140.472 125.8 135.814C124.981 134.603 123.337 134.284 122.125 135.102C120.915 135.921 120.596 137.566 121.414 138.777C123.968 142.557 125.318 146.976 125.318 151.558C125.318 164.165 115.061 174.422 102.454 174.422C89.8466 174.422 79.5903 164.165 79.5903 151.558C79.5903 138.951 89.8466 128.695 102.454 128.695C103.915 128.695 105.1 127.51 105.1 126.049C105.1 124.587 103.915 123.402 102.454 123.402Z" fill="#F5F5F5"/>
<path d="M151.371 176.665L144.451 169.744C143.829 169.123 143.66 168.162 144.001 167.34C144.008 167.325 144.041 167.248 144.047 167.233C144.404 166.371 145.201 165.814 146.079 165.814H155.866C157.327 165.814 158.512 164.63 158.512 163.168V136.925C158.512 135.463 157.327 134.278 155.866 134.278H146.079C145.201 134.278 144.404 133.721 144.019 132.795C143.66 131.93 143.83 130.97 144.451 130.347L151.371 123.427C152.405 122.394 152.405 120.719 151.371 119.685L132.814 101.128C131.781 100.095 130.105 100.095 129.072 101.128C128.038 102.162 128.038 103.837 129.072 104.871L145.758 121.557L140.709 126.605C138.566 128.748 137.947 131.975 139.157 134.884C140.336 137.731 143.053 139.571 146.079 139.571H153.219V160.522H146.079C143.053 160.522 140.336 162.362 139.176 165.162C139.171 165.176 139.139 165.251 139.133 165.266C137.946 168.117 138.565 171.345 140.709 173.487L145.758 178.536L130.943 193.351L125.894 188.302C123.751 186.158 120.523 185.54 117.616 186.75C114.769 187.929 112.929 190.646 112.929 193.672V200.812H91.978V193.672C91.978 190.646 90.1386 187.928 87.2343 186.726C84.3831 185.54 81.1562 186.159 79.0124 188.301L73.9636 193.351L59.1491 178.536L64.1979 173.487C66.3409 171.343 66.9597 168.116 65.7499 165.208C64.5706 162.362 61.8534 160.522 58.828 160.522H51.6882V139.571H58.8284C61.8542 139.571 64.5714 137.731 65.7741 134.827C66.9597 131.976 66.3413 128.748 64.1983 126.605L59.1495 121.556L73.964 106.742L79.0128 111.79C81.1558 113.934 84.3827 114.553 87.2917 113.343C90.1386 112.163 91.978 109.446 91.978 106.421V99.2804H112.929V106.421C112.929 109.447 114.769 112.164 117.616 113.343C118.569 113.738 119.523 114.178 120.45 114.65C121.75 115.312 123.344 114.795 124.008 113.493C124.672 112.191 124.154 110.598 122.852 109.934C121.803 109.399 120.722 108.901 119.64 108.453C118.778 108.096 118.221 107.298 118.221 106.42V96.6335C118.221 95.1718 117.036 93.9874 115.575 93.9874H89.3319C87.8706 93.9874 86.6858 95.1718 86.6858 96.6335V106.42C86.6858 107.298 86.1288 108.096 85.2019 108.48C84.3382 108.84 83.3772 108.67 82.7554 108.048L75.8354 101.128C74.8019 100.095 73.1261 100.095 72.0929 101.128L53.5358 119.685C52.5022 120.718 52.5022 122.394 53.5358 123.428L60.4558 130.347C61.078 130.969 61.2472 131.93 60.8964 132.774C60.8929 132.782 60.8644 132.851 60.8604 132.859C60.5034 133.721 59.7058 134.278 58.8284 134.278H49.0421C47.5808 134.278 46.396 135.463 46.396 136.924V163.168C46.396 164.629 47.5808 165.814 49.0421 165.814H58.8288C59.7062 165.814 60.5038 166.371 60.8882 167.298C61.2476 168.162 61.078 169.123 60.4562 169.744L53.5362 176.664C52.5026 177.698 52.5026 179.374 53.5362 180.407L72.0933 198.964C73.1269 199.997 74.8022 199.997 75.8358 198.964L82.7558 192.044C83.3776 191.421 84.3382 191.253 85.1819 191.603C85.1901 191.607 85.2589 191.635 85.2671 191.639C86.1292 191.996 86.6862 192.794 86.6862 193.672V203.458C86.6862 204.92 87.871 206.104 89.3323 206.104H115.576C117.037 206.104 118.222 204.92 118.222 203.458V193.672C118.222 192.794 118.779 191.996 119.611 191.651C119.623 191.646 119.695 191.616 119.706 191.612C120.57 191.252 121.531 191.422 122.153 192.043L129.073 198.963C129.569 199.46 130.242 199.738 130.944 199.738C131.646 199.738 132.319 199.46 132.815 198.964L151.372 180.407C152.405 179.373 152.405 177.698 151.371 176.665Z" fill="#F5F5F5"/>
<path d="M178.627 142.073C178.627 151.467 186.27 159.11 195.666 159.11C205.061 159.11 212.704 151.467 212.704 142.073C212.704 132.678 205.061 125.034 195.666 125.034C186.27 125.034 178.627 132.678 178.627 142.073ZM207.411 142.073C207.411 148.549 202.142 153.818 195.666 153.818C189.189 153.818 183.92 148.549 183.92 142.073C183.92 135.595 189.189 130.327 195.666 130.327C202.142 130.327 207.411 135.595 207.411 142.073Z" fill="#F5F5F5"/>
<path d="M212.958 193.353C214.419 193.353 215.604 192.169 215.604 190.708V184.08C215.604 173.086 206.66 164.142 195.666 164.142C184.671 164.142 175.727 173.086 175.727 184.08V201.119H143.511C142.05 201.119 140.865 202.303 140.865 203.765C140.865 205.226 142.05 206.411 143.511 206.411H178.245C178.288 206.413 178.329 206.424 178.373 206.424H212.958C214.419 206.424 215.604 205.239 215.604 203.778C215.604 202.316 214.419 201.132 212.958 201.132H181.02V184.08C181.02 176.004 187.59 169.434 195.666 169.434C203.741 169.434 210.312 176.004 210.312 184.08V190.708C210.312 192.169 211.497 193.353 212.958 193.353Z" fill="#F5F5F5"/>
<path d="M67.566 92.3328C69.0273 92.3328 70.2121 91.148 70.2121 89.6867V45.1914H87.7645C89.2258 45.1914 90.4105 44.007 90.4105 42.5453C90.4105 41.0839 89.2258 39.8992 87.7645 39.8992H67.566C66.1047 39.8992 64.9199 41.0839 64.9199 42.5453V89.6867C64.9199 91.1484 66.1047 92.3328 67.566 92.3328Z" fill="#F5F5F5"/>
<path d="M177.657 45.1914H195.6V109.229C195.6 110.691 196.785 111.875 198.246 111.875C199.707 111.875 200.892 110.691 200.892 109.229V42.5453C200.892 41.0839 199.707 39.8992 198.246 39.8992H177.657C176.196 39.8992 175.012 41.0839 175.012 42.5453C175.012 44.007 176.196 45.1914 177.657 45.1914Z" fill="#F5F5F5"/>
<path d="M103.413 56.5879H162.4C163.86 56.5879 165.045 55.4031 165.045 53.9418V36.2218C165.045 34.7605 163.86 33.5757 162.4 33.5757H103.413C101.952 33.5757 100.767 34.7605 100.767 36.2218V53.9418C100.767 55.4031 101.952 56.5879 103.413 56.5879ZM106.059 38.8679H159.753V51.2953H106.059V38.8679Z" fill="#F5F5F5"/>
<path d="M102.454 134.439C100.992 134.439 99.8076 135.624 99.8076 137.085V151.558C99.8076 153.019 100.992 154.204 102.454 154.204H112.108C113.569 154.204 114.754 153.019 114.754 151.558C114.754 150.096 113.569 148.912 112.108 148.912H105.1V137.085C105.1 135.624 103.915 134.439 102.454 134.439Z" fill="#F5F5F5"/>
<path d="M96.8795 77.4129H156.622C158.083 77.4129 159.267 76.2285 159.267 74.7668C159.267 73.3054 158.083 72.1207 156.622 72.1207H96.8795C95.4178 72.1207 94.2334 73.3054 94.2334 74.7668C94.2334 76.2281 95.4178 77.4129 96.8795 77.4129Z" fill="#F5F5F5"/>
<path d="M156.622 93.4769H144.488C143.027 93.4769 141.842 94.6616 141.842 96.123C141.842 97.5843 143.027 98.7691 144.488 98.7691H156.622C158.083 98.7691 159.268 97.5843 159.268 96.123C159.268 94.6616 158.083 93.4769 156.622 93.4769Z" fill="#F5F5F5"/>
<path d="M172.536 80.3859C173.053 80.9023 173.73 81.1605 174.407 81.1605C175.084 81.1605 175.762 80.9019 176.278 80.3855L183.774 72.889C184.807 71.8558 184.807 70.1804 183.774 69.1468C182.74 68.114 181.064 68.1136 180.032 69.1472L174.407 74.7726L172.178 72.5441C171.144 71.5109 169.468 71.5105 168.436 72.5445C167.402 73.5777 167.402 75.2535 168.436 76.2867L172.536 80.3859Z" fill="#F5F5F5"/>
<path d="M172.536 101.743C173.053 102.259 173.73 102.518 174.407 102.518C175.084 102.518 175.762 102.259 176.278 101.742L183.774 94.2457C184.807 93.2125 184.807 91.5371 183.774 90.5035C182.74 89.4707 181.064 89.4703 180.032 90.5039L174.407 96.1293L172.178 93.9007C171.144 92.8675 169.468 92.8671 168.436 93.9007C167.402 94.9339 167.402 96.6097 168.436 97.6429L172.536 101.743Z" fill="#F5F5F5"/>
</g>
<defs>
<filter id="filter0_i_32_5" x="31" y="20" width="200" height="204" filterUnits="userSpaceOnUse" color-interpolation-filters="sRGB">
<feFlood flood-opacity="0" result="BackgroundImageFix"/>
<feBlend mode="normal" in="SourceGraphic" in2="BackgroundImageFix" result="shape"/>
<feColorMatrix in="SourceAlpha" type="matrix" values="0 0 0 0 0 0 0 0 0 0 0 0 0 0 0 0 0 0 127 0" result="hardAlpha"/>
<feOffset dy="4"/>
<feGaussianBlur stdDeviation="2"/>
<feComposite in2="hardAlpha" operator="arithmetic" k2="-1" k3="1"/>
<feColorMatrix type="matrix" values="0 0 0 0 0 0 0 0 0 0 0 0 0 0 0 0 0 0 0.3 0"/>
<feBlend mode="normal" in2="shape" result="effect1_innerShadow_32_5"/>
</filter>
</defs>
</svg>
