<svg width="265" height="252" viewBox="0 0 265 252" fill="none" xmlns="http://www.w3.org/2000/svg">
<ellipse cx="132.5" cy="126" rx="132.5" ry="126" fill="#00A3FF"/>
<path d="M102.454 123.402C86.9287 123.402 74.2979 136.033 74.2979 151.558C74.2979 167.084 86.9287 179.714 102.454 179.714C117.979 179.714 130.61 167.084 130.61 151.558C130.61 145.916 128.947 140.472 125.8 135.814C124.982 134.603 123.337 134.284 122.126 135.102C120.915 135.921 120.596 137.566 121.415 138.777C123.969 142.557 125.318 146.976 125.318 151.558C125.318 164.165 115.062 174.422 102.454 174.422C89.8471 174.422 79.5908 164.165 79.5908 151.558C79.5908 138.951 89.8471 128.695 102.454 128.695C103.916 128.695 105.101 127.51 105.101 126.049C105.1 124.587 103.915 123.402 102.454 123.402Z" fill="#F5F5F5"/>
<path d="M151.371 176.665L144.452 169.744C143.83 169.123 143.66 168.162 144.002 167.34C144.009 167.325 144.041 167.248 144.047 167.233C144.404 166.371 145.202 165.814 146.08 165.814H155.866C157.327 165.814 158.512 164.63 158.512 163.168V136.925C158.512 135.463 157.327 134.278 155.866 134.278H146.08C145.202 134.278 144.404 133.721 144.02 132.795C143.66 131.93 143.83 130.97 144.452 130.347L151.371 123.427C152.405 122.394 152.405 120.719 151.371 119.685L132.815 101.128C131.781 100.095 130.106 100.095 129.072 101.128C128.039 102.162 128.039 103.837 129.072 104.871L145.759 121.557L140.71 126.605C138.566 128.748 137.948 131.975 139.158 134.884C140.336 137.731 143.053 139.571 146.08 139.571H153.22V160.522H146.08C143.053 160.522 140.336 162.362 139.177 165.162C139.171 165.176 139.139 165.251 139.134 165.266C137.947 168.117 138.566 171.345 140.71 173.487L145.759 178.536L130.944 193.351L125.895 188.302C123.751 186.158 120.523 185.54 117.616 186.75C114.769 187.929 112.929 190.646 112.929 193.672V200.812H91.9785V193.672C91.9785 190.646 90.1391 187.928 87.2348 186.726C84.3836 185.54 81.1566 186.159 79.0129 188.301L73.9641 193.351L59.1496 178.536L64.1984 173.487C66.3414 171.343 66.9602 168.116 65.7504 165.208C64.5711 162.362 61.8539 160.522 58.8285 160.522H51.6887V139.571H58.8289C61.8547 139.571 64.5719 137.731 65.7746 134.827C66.9602 131.976 66.3418 128.748 64.1988 126.605L59.15 121.556L73.9645 106.742L79.0133 111.79C81.1563 113.934 84.3832 114.553 87.2922 113.343C90.1391 112.163 91.9785 109.446 91.9785 106.421V99.2804H112.929V106.421C112.929 109.447 114.769 112.164 117.616 113.343C118.57 113.738 119.524 114.178 120.45 114.65C121.751 115.312 123.345 114.795 124.009 113.493C124.672 112.191 124.155 110.598 122.852 109.934C121.803 109.399 120.723 108.901 119.641 108.453C118.779 108.096 118.221 107.298 118.221 106.42V96.6335C118.221 95.1718 117.037 93.9874 115.575 93.9874H89.3324C87.8711 93.9874 86.6863 95.1718 86.6863 96.6335V106.42C86.6863 107.298 86.1293 108.096 85.2023 108.48C84.3387 108.84 83.3777 108.67 82.7559 108.048L75.8359 101.128C74.8023 100.095 73.1266 100.095 72.0934 101.128L53.5363 119.685C52.5027 120.718 52.5027 122.394 53.5363 123.428L60.4562 130.347C61.0785 130.969 61.2477 131.93 60.8969 132.774C60.8934 132.782 60.8648 132.851 60.8609 132.859C60.5039 133.721 59.7062 134.278 58.8289 134.278H49.0426C47.5812 134.278 46.3965 135.463 46.3965 136.924V163.168C46.3965 164.629 47.5812 165.814 49.0426 165.814H58.8293C59.7066 165.814 60.5043 166.371 60.8887 167.298C61.248 168.162 61.0785 169.123 60.4566 169.744L53.5367 176.664C52.5031 177.698 52.5031 179.374 53.5367 180.407L72.0937 198.964C73.1273 199.997 74.8027 199.997 75.8363 198.964L82.7562 192.044C83.3781 191.421 84.3387 191.253 85.1824 191.603C85.1906 191.607 85.2594 191.635 85.2676 191.639C86.1297 191.996 86.6867 192.794 86.6867 193.672V203.458C86.6867 204.92 87.8715 206.104 89.3328 206.104H115.576C117.038 206.104 118.222 204.92 118.222 203.458V193.672C118.222 192.794 118.779 191.996 119.612 191.651C119.623 191.646 119.696 191.616 119.707 191.612C120.571 191.252 121.532 191.422 122.153 192.043L129.073 198.963C129.57 199.46 130.243 199.738 130.945 199.738C131.646 199.738 132.319 199.46 132.816 198.964L151.372 180.407C152.405 179.373 152.405 177.698 151.371 176.665Z" fill="#F5F5F5"/>
<path d="M178.628 142.073C178.628 151.467 186.271 159.11 195.666 159.11C205.062 159.11 212.704 151.467 212.704 142.073C212.704 132.678 205.062 125.034 195.666 125.034C186.271 125.034 178.628 132.678 178.628 142.073ZM207.412 142.073C207.412 148.549 202.143 153.818 195.666 153.818C189.19 153.818 183.92 148.549 183.92 142.073C183.92 135.595 189.19 130.327 195.666 130.327C202.143 130.327 207.412 135.595 207.412 142.073Z" fill="#F5F5F5"/>
<path d="M212.958 193.353C214.419 193.353 215.604 192.169 215.604 190.708V184.08C215.604 173.086 206.66 164.142 195.666 164.142C184.671 164.142 175.727 173.086 175.727 184.08V201.119H143.511C142.05 201.119 140.865 202.303 140.865 203.765C140.865 205.226 142.05 206.411 143.511 206.411H178.245C178.288 206.413 178.329 206.424 178.373 206.424H212.958C214.419 206.424 215.604 205.239 215.604 203.778C215.604 202.316 214.419 201.132 212.958 201.132H181.02V184.08C181.02 176.004 187.59 169.434 195.666 169.434C203.741 169.434 210.312 176.004 210.312 184.08V190.708C210.312 192.169 211.497 193.353 212.958 193.353Z" fill="#F5F5F5"/>
<path d="M67.566 92.3328C69.0273 92.3328 70.2121 91.148 70.2121 89.6867V45.1914H87.7645C89.2258 45.1914 90.4105 44.007 90.4105 42.5453C90.4105 41.0839 89.2258 39.8992 87.7645 39.8992H67.566C66.1047 39.8992 64.9199 41.0839 64.9199 42.5453V89.6867C64.9199 91.1484 66.1047 92.3328 67.566 92.3328Z" fill="#F5F5F5"/>
<path d="M177.657 45.1914H195.6V109.229C195.6 110.691 196.785 111.875 198.246 111.875C199.707 111.875 200.892 110.691 200.892 109.229V42.5453C200.892 41.0839 199.707 39.8992 198.246 39.8992H177.657C176.196 39.8992 175.012 41.0839 175.012 42.5453C175.012 44.007 176.196 45.1914 177.657 45.1914Z" fill="#F5F5F5"/>
<path d="M103.414 56.5879H162.4C163.861 56.5879 165.046 55.4031 165.046 53.9418V36.2218C165.046 34.7605 163.861 33.5757 162.4 33.5757H103.414C101.952 33.5757 100.768 34.7605 100.768 36.2218V53.9418C100.768 55.4031 101.952 56.5879 103.414 56.5879ZM106.06 38.8679H159.754V51.2953H106.06V38.8679Z" fill="#F5F5F5"/>
<path d="M102.455 134.439C100.993 134.439 99.8086 135.624 99.8086 137.085V151.558C99.8086 153.019 100.993 154.204 102.455 154.204H112.109C113.57 154.204 114.755 153.019 114.755 151.558C114.755 150.096 113.57 148.912 112.109 148.912H105.101V137.085C105.101 135.624 103.916 134.439 102.455 134.439Z" fill="#F5F5F5"/>
<path d="M96.8795 77.4129H156.622C158.083 77.4129 159.267 76.2285 159.267 74.7668C159.267 73.3054 158.083 72.1207 156.622 72.1207H96.8795C95.4178 72.1207 94.2334 73.3054 94.2334 74.7668C94.2334 76.2281 95.4178 77.4129 96.8795 77.4129Z" fill="#F5F5F5"/>
<path d="M156.622 93.4769H144.488C143.027 93.4769 141.842 94.6616 141.842 96.123C141.842 97.5843 143.027 98.7691 144.488 98.7691H156.622C158.083 98.7691 159.268 97.5843 159.268 96.123C159.268 94.6616 158.083 93.4769 156.622 93.4769Z" fill="#F5F5F5"/>
<path d="M172.536 80.3859C173.053 80.9023 173.73 81.1605 174.407 81.1605C175.084 81.1605 175.762 80.9019 176.278 80.3855L183.774 72.889C184.808 71.8558 184.808 70.1804 183.774 69.1468C182.741 68.114 181.064 68.1136 180.032 69.1472L174.407 74.7726L172.178 72.5441C171.145 71.5109 169.468 71.5105 168.436 72.5445C167.403 73.5777 167.403 75.2535 168.436 76.2867L172.536 80.3859Z" fill="#F5F5F5"/>
<path d="M172.536 101.743C173.053 102.259 173.73 102.518 174.407 102.518C175.084 102.518 175.762 102.259 176.278 101.742L183.774 94.2457C184.808 93.2125 184.808 91.5371 183.774 90.5035C182.741 89.4707 181.064 89.4703 180.032 90.5039L174.407 96.1293L172.178 93.9007C171.145 92.8675 169.468 92.8671 168.436 93.9007C167.403 94.9339 167.403 96.6097 168.436 97.6429L172.536 101.743Z" fill="#F5F5F5"/>
</svg>
